<svg width="512" height="512" viewBox="0 0 512 512" fill="none" xmlns="http://www.w3.org/2000/svg"><g clip-path="url(#clip0)"><path d="M70 33.5V56.5C70 60.6 73.4 64 77.5 64C81.6 64 85 60.6 85 56.5V33.5C85 29.4 81.6 26 77.5 26C73.4 26 70 29.4 70 33.5Z" fill="#1D1D1B"></path><path d="M115.4 33.5V56.5C115.4 60.6 118.8 64 122.9 64C127 64 130.4 60.6 130.4 56.5V33.5C130.4 29.4 127 26 122.9 26C118.8 26 115.4 29.4 115.4 33.5Z" fill="#1D1D1B"></path><path d="M72.7 159.8C68.6 159.8 65.2 163.2 65.2 167.3V236C65.2 238.3 66.2 240.5 68 241.9L92.7 261.4V290C92.7 294.1 96.1 297.5 100.2 297.5C104.3 297.5 107.7 294.1 107.7 290V219.2L132.4 199.7C134.2 198.3 135.2 196.1 135.2 193.8V125.1C135.2 121 131.8 117.6 127.7 117.6C123.6 117.6 120.2 121 120.2 125.1V190.1L107.7 200V137.7C107.7 133.6 104.3 130.2 100.2 130.2C96.1 130.2 92.7 133.6 92.7 137.7V242.1L80.2 232.2V167.2C80.2 163.1 76.8 159.8 72.7 159.8Z" fill="#96C120"></path><path d="M464.8 108.7H385.7C334.9 108.7 293.6 150 293.6 200.8V419.9C293.6 446.4 272 468 245.5 468H170.2C143.7 468 122.1 446.4 122.1 419.9V395C131.7 389.1 138.1 378.5 138.1 366.4V338.4C160.2 325.3 175.1 301.2 175.1 273.7V88.5C175.1 81.1 169 75 161.6 75H158V56.5C158 52.4 154.6 49 150.5 49C146.4 49 143 52.4 143 56.5V75H57.5V15.5C57.5 15.2 57.7 15 58 15H142.5C142.8 15 143 15.2 143 15.5V21.5C143 25.6 146.4 29 150.5 29C154.6 29 158 25.6 158 21.5V15.5C158 7 151 0 142.5 0H58C49.4 0 42.5 7 42.5 15.5V75H38.7C31.3 75 25.2 81.1 25.2 88.5V241.9C25.2 246 28.6 249.4 32.7 249.4C36.8 249.4 40.2 246 40.2 241.9V90H160.4V273.8C160.4 307.2 133.2 333.9 100.3 333.9C68.4 333.9 41.7999 309 40.2999 276.7C40.0999 272.6 36.6 269.4 32.5 269.6C28.4 269.8 25.2 273.3 25.4 277.4C26.6 303.7 41.1999 326.2 62.2999 338.6V366.5C62.2999 378.6 68.7 389.2 78.3 395.1V420C78.3 470.8 119.6 512.1 170.4 512.1H245.7C296.5 512.1 337.8 470.8 337.8 420V200.8C337.8 174.3 359.4 152.7 385.9 152.7H465C477.1 152.7 487 142.8 487 130.7C487 118.6 477 108.7 464.8 108.7ZM77.1999 345.2C84.5999 347.5 92.2 348.8 100.3 348.8C108.2 348.8 116.2 347.5 123.4 345.2V366.4C123.4 374.5 118.1 381.4 110.9 383.9C107.1 385.2 105.1 384.9 95.8 384.9C85.8 384.9 77.3 376.8 77.3 366.4V345.2H77.1999ZM464.8 137.8H385.7C350.9 137.8 322.6 166.1 322.6 200.9V420C322.6 462.5 288 497.1 245.5 497.1H170.2C127.7 497.1 93.0999 462.5 93.0999 420V399.9C93.1999 399.9 93.2999 399.9 93.3999 399.9C95.1999 400 105.2 400 107.2 399.9V420C107.2 454.8 135.5 483.1 170.3 483.1H245.6C280.4 483.1 308.7 454.8 308.7 420V200.8C308.7 158.3 343.3 123.7 385.8 123.7H464.9C468.8 123.7 471.9 126.8 471.9 130.7C471.9 134.6 468.7 137.8 464.8 137.8Z" fill="#1D1D1B"></path></g><defs><clipPath id="clip0"><rect width="512" height="512" fill="white"></rect></clipPath></defs></svg>