<svg viewBox="0 0 478 369" fill="none" xmlns="http://www.w3.org/2000/svg"><path d="M394 352H391.7C387.3 352 383.7 355.6 383.7 360C383.7 364.4 387.3 368 391.7 368H454C467.3 368 478 357.3 478 344V24C478 10.8 467.2 0 454 0H310C296.7 0 286 10.7 286 24V64H134C120.8 64 110 74.8 110 88V147.1C110 151.5 113.6 155.1 118 155.1C122.4 155.1 126 151.5 126 147.1V88C126 83.6 129.6 80 134 80H390C394.4 80 398 83.6 398 88V248C398 252.4 394.4 256 390 256H313.8C309.4 256 305.8 259.6 305.8 264C305.8 268.4 309.4 272 313.8 272H390C403.3 272 414 261.3 414 248V176H462V344C462 348.4 458.4 352 454 352H410H394ZM462 160H414V128H462V160ZM462 112H414V88C414 85.2 413.4 82.5 412.5 80H462V112ZM462 64H302V24C302 19.6 305.6 16 310 16H454C458.4 16 462 19.6 462 24V64Z" fill="#1D1D1B"></path><path d="M31.1999 349.3H287.4C292.7 349.3 297 345 297 339.7V174.9C297 169.6 292.7 165.3 287.4 165.3H31.1999C25.8999 165.3 21.5999 169.6 21.5999 174.9V339.6C21.5999 345 25.8999 349.3 31.1999 349.3ZM29.7999 174.9C29.7999 174.1 30.3999 173.5 31.1999 173.5H287.4C288.2 173.5 288.8 174.1 288.8 174.9V339.6C288.8 340.4 288.2 341 287.4 341H31.1999C30.3999 341 29.7999 340.4 29.7999 339.6V174.9ZM317.7 356.6V364.3C317.7 366.3 316 368 314 368H4.5999C2.5999 368 0.899902 366.3 0.899902 364.3V356.6H131C131.6 358.7 133.6 360.3 136 360.3H182.7C185.1 360.3 187 358.7 187.7 356.6H317.7Z" fill="#96C120" stroke="#96C120" stroke-width="1.2" stroke-miterlimit="10"></path></svg>