<svg width="468" height="508" viewBox="0 0 468 508" fill="none" xmlns="http://www.w3.org/2000/svg"><g clip-path="url(#clip0)"><path d="M467.59 254.12C467.59 320.21 467.59 386.3 467.59 452.39C467.59 458.57 467.45 464.74 465.52 470.68C462.1 481.21 456.29 490.14 447.42 496.95C437.78 504.35 426.88 507.92 414.73 507.9C388.39 507.86 362.05 507.88 335.72 507.91C331.11 507.92 327.19 506.65 324.58 502.57C319.56 494.72 324.51 484.62 333.79 483.79C335.03 483.68 336.29 483.71 337.54 483.71C363.13 483.7 388.72 483.63 414.31 483.74C423.06 483.78 430.47 480.91 436.3 474.43C440.59 469.67 443.11 464.04 443.31 457.52C443.36 455.86 443.38 454.19 443.38 452.52C443.38 320.18 443.38 187.83 443.4 55.49C443.4 49.95 443.07 44.56 440.38 39.51C436.82 32.81 431.7 27.96 424.38 25.85C421.15 24.92 417.7 24.36 414.35 24.35C320.92 24.27 227.48 24.31 134.04 24.25C123.65 24.24 115.53 28.22 109.56 36.65C105.9 41.82 104.74 47.74 104.72 53.9C104.66 72.82 104.74 91.74 104.64 110.65C104.62 113.26 104.4 116.12 103.31 118.41C100.9 123.48 95.52 125.79 90.15 124.76C85.12 123.79 81.14 119.16 80.57 113.6C80.49 112.86 80.48 112.1 80.48 111.35C80.48 91.93 80.33 72.51 80.53 53.1C80.7 36.7 86.75 22.81 99.45 12.16C109.84 3.43 121.98 -0.0300051 135.48 -5.09563e-06C197.66 0.129995 259.84 0.0599949 322.02 0.0599949C352.11 0.0599949 382.2 0.0599949 412.29 0.0599949C418.47 0.0599949 424.65 0.249995 430.58 2.18C441.03 5.59 449.87 11.39 456.64 20.17C464.53 30.4 467.68 42.01 467.65 54.85C467.53 116.19 467.6 177.53 467.6 238.87V254.12H467.59Z" fill="#1D1D1D"></path><path d="M225.71 334.59C225.71 374.51 225.68 414.42 225.72 454.33C225.74 472.27 218.74 486.78 204.51 497.64C195.07 504.85 184.21 507.93 172.34 507.91C132.59 507.85 92.83 507.88 53.08 507.89C36.65 507.89 22.95 501.79 12.27 489.3C3.58 479.14 -0.0799999 467.16 1.10012e-07 453.84C0.12 435.01 0.0300001 416.17 0.0300001 397.34C0.0300001 337.18 0.0300001 277.01 0.0300001 216.85C0.0300001 210.33 0.3 203.83 2.39 197.6C5.41 188.62 10.36 180.83 17.52 174.54C24.99 167.97 33.52 163.54 43.45 162.2C47.72 161.63 52.05 161.19 56.36 161.18C94.95 161.1 133.53 161.07 172.12 161.16C188.22 161.2 202.04 166.86 212.75 179.11C220.84 188.36 225.54 199.23 225.59 211.58C225.76 252.58 225.66 293.58 225.66 334.57H225.71V334.59ZM24.25 334.24C24.25 373.41 24.25 412.58 24.26 451.76C24.26 453.93 24.29 456.09 24.43 458.26C24.92 466.2 28.55 472.54 34.59 477.52C40.23 482.17 46.82 483.77 54.09 483.75C91.43 483.64 128.77 483.7 166.12 483.7C169.29 483.7 172.46 483.75 175.62 483.59C182.96 483.22 189.1 480.1 194.03 474.78C199.49 468.89 201.65 461.77 201.64 453.76C201.58 380.92 201.61 308.07 201.6 235.23C201.6 227.9 201.76 220.56 201.5 213.23C201.39 210.03 200.84 206.71 199.74 203.72C195.74 192.79 185.35 185.45 173.61 185.42C133.02 185.32 92.42 185.29 51.83 185.47C43.11 185.51 35.77 189.2 30.2 196.17C25.65 201.86 24.19 208.37 24.2 215.5C24.29 255.06 24.25 294.65 24.25 334.24Z" fill="#96C120"></path><path d="M286.05 471.96C286.05 478.6 280.67 483.98 274.03 483.98C267.39 483.98 262.01 478.6 262.01 471.96C262.01 465.32 267.39 459.94 274.03 459.94C280.67 459.94 286.05 465.32 286.05 471.96Z" fill="#1D1D1D"></path></g><defs><clipPath><rect width="467.64" height="507.91" fill="white"></rect></clipPath></defs></svg>