<svg width="32" height="32" viewBox="0 0 32 32" fill="none" xmlns="http://www.w3.org/2000/svg"><path fill-rule="evenodd" clip-rule="evenodd" d="M10.058 26.602c.952 0 1.727.774 1.727 1.726s-.775 1.726-1.727 1.726a1.726 1.726 0 0 1 0-3.452zm15.04 0c.954 0 1.729.774 1.729 1.726a1.728 1.728 0 0 1-3.453 0c0-.952.773-1.726 1.725-1.726zM4.358 4.012l2.773.48c.447.08.787.45.826.903l.313 3.735h1.729l2.14.002h.505l2.362.001h.44l1.655.002H18.944l.34.001 1.27.001h.295l.834.001h.262l.966.002h.222l.816.001h.186l.518.001h.16l.578.002h.484l.108.001.381.001h.084l.223.002h.067l.226.001h.048l.123.001h.035l.089.002h.024l.06.001h.017l.038.001h.01l.027.002h.005l.017.002a2.777 2.777 0 0 1 1.841 1.093c.446.596.632 1.33.526 2.067l-1.266 8.744a3.416 3.416 0 0 1-3.364 2.918H10.633a3.415 3.415 0 0 1-3.385-3.123L6.026 6.33l-2.009-.346a1.002 1.002 0 0 1-.816-1.158c.096-.545.623-.9 1.156-.814zm4.81 7.118h-.73l.804 9.562a1.39 1.39 0 0 0 1.395 1.288h14.556c.694 0 1.288-.517 1.386-1.204l1.267-8.745a.783.783 0 0 0-.15-.584.774.774 0 0 0-.517-.308l-.068.001-.145.001h-.1l-.755.002h-2.278l-2.027-.002h-.368l-1.147-.001h-.395l-1.214-.001h-.414l-.837-.002h-.422l-1.277-.001h-.427l-.854-.001h-.426l-.847-.002h-1.661l-.405-.001-1.568-.001h-.376zm13.883 2.928a1 1 0 0 1 0 2h-3.696a1 1 0 1 1 0-2h3.696z" fill="#fff"></path></svg>