<svg width="28" height="21" viewBox="0 0 28 21" fill="none" xmlns="http://www.w3.org/2000/svg"><path d="M26.833 11.359H1.167c-.642 0-1.167-.394-1.167-.875 0-.482.525-.875 1.167-.875h25.666c.642 0 1.167.393 1.167.875 0 .48-.525.875-1.167.875zM26.833 4.648H1.167C.525 4.648 0 4.255 0 3.773c0-.48.525-.875 1.167-.875h25.666c.642 0 1.167.394 1.167.875 0 .482-.525.875-1.167.875zM26.833 18.063H1.167C.525 18.063 0 17.67 0 17.188c0-.481.525-.875 1.167-.875h25.666c.642 0 1.167.394 1.167.875 0 .482-.525.875-1.167.875z" fill="#fff"></path></svg>