<svg width="20" height="20" viewBox="0 0 20 20" fill="none" xmlns="http://www.w3.org/2000/svg"><path d="M9.4 4.89l.6.804.6-.803a3.874 3.874 0 0 1 3.1-1.558c2.14 0 3.883 1.744 3.883 3.909 0 .91-.145 1.749-.397 2.527l-.001.005c-.605 1.913-1.848 3.467-3.206 4.634-1.361 1.17-2.795 1.914-3.704 2.224l-.008.002a.921.921 0 0 1-.267.033.921.921 0 0 1-.267-.033l-.008-.002c-.909-.31-2.343-1.054-3.704-2.224-1.358-1.167-2.601-2.72-3.206-4.634l-.001-.005a8.149 8.149 0 0 1-.397-2.527c0-2.165 1.742-3.909 3.883-3.909 1.26 0 2.393.613 3.1 1.558z" stroke="#DADADA" stroke-width="1.5"></path></svg>