<svg class="Top_wtText__1oTbe" width="34" height="34" viewBox="0 0 34 34" fill="none" xmlns="http://www.w3.org/2000/svg"><path fill-rule="evenodd" clip-rule="evenodd" d="M17 0c9.41 0 17 7.59 17 17s-7.59 17-17 17c-9.41-.076-17-7.665-17-17C0 7.59 7.59 0 17 0z" fill="#fff"></path><path fill-rule="evenodd" clip-rule="evenodd" d="M17 29.599C10.018 29.599 4.4 23.907 4.4 17c0-6.982 5.693-12.598 12.599-12.598 6.982 0 12.598 5.692 12.598 12.598C29.598 23.907 23.982 29.6 17 29.6z" fill="#DA393F"></path><path fill-rule="evenodd" clip-rule="evenodd" d="M21.478 18.746c0 1.367.607 1.67 1.973 1.67h1.518v-1.063h-.76c-.682 0-.834-.151-.834-.91v-2.808h1.746v-1.063h-1.746v-2.125l-1.897.304v1.821h-1.215v1.063h1.215v3.111zM26.562 21.175c-1.973 3.187-5.464 5.236-9.487 5.236-4.022 0-7.513-2.125-9.486-5.236h.91c1.746 2.125 5.692 3.49 8.652 3.49 2.96 0 6.906-1.365 8.652-3.49h.759zM10.853 20.34h2.58l.835-3.567h.152l.759 3.567h2.504l1.139-4.705.759-.076v-.987h-1.898l-.986 4.326h-.152l-1.063-4.326h-2.049l-.986 4.326h-.152l-1.063-4.326H8.956v.987l.759.076 1.138 4.705z" fill="#fff"></path><path fill-rule="evenodd" clip-rule="evenodd" d="M7.589 12.599c1.973-3.188 5.464-5.237 9.486-5.237 4.023 0 7.514 2.125 9.487 5.237h-.91c-1.746-2.125-5.693-3.491-8.653-3.491-2.96 0-6.906 1.366-8.651 3.49h-.76z" fill="#fff"></path><path fill-rule="evenodd" clip-rule="evenodd" d="M17 3.34a13.571 13.571 0 0 1 13.585 13.584A13.571 13.571 0 0 1 17 30.51 13.571 13.571 0 0 1 3.415 16.924C3.415 9.487 9.487 3.34 17 3.34zM17 0c9.41 0 17 7.59 17 17s-7.59 17-17 17c-9.41-.076-17-7.665-17-17C0 7.59 7.59 0 17 0z" fill="#8DC63F"></path></svg>