<svg width="360" height="360" viewBox="0 0 360 360" fill="none" xmlns="http://www.w3.org/2000/svg">
<path fill-rule="evenodd" clip-rule="evenodd" d="M179.752 313.618C105.974 313.618 46.2803 253.85 46.2803 179.979C46.2803 106.108 105.974 46.3398 179.752 46.3398C253.531 46.3398 313.225 106.108 313.225 179.979C313.896 253.85 254.202 313.618 179.752 313.618ZM228.044 198.106C228.044 212.88 234.08 215.566 248.836 215.566H264.933V204.15H256.885C250.178 204.15 247.495 202.135 247.495 194.748V165.2H266.275V154.455H247.495V131.622L227.373 134.98V154.455H214.63V165.871H227.373V198.106H228.044ZM181.094 280.041C223.349 280.041 260.909 257.879 281.701 224.302H272.311C254.202 247.135 211.947 261.237 181.094 261.237C150.241 261.237 107.986 246.463 89.8763 224.302H80.4863C101.278 257.879 138.839 280.041 181.094 280.041ZM115.364 215.568H142.192L150.912 177.29H152.924L160.972 215.568H187.801L199.874 165.873L207.922 164.53V154.457H187.801L177.07 200.123H175.057L164.326 154.457H142.192L132.131 200.123H130.119L119.388 154.457H95.2422V164.53L103.291 165.873L115.364 215.568ZM181.094 77.8984C138.839 77.8984 101.278 100.06 80.4863 133.637H89.8763C107.986 110.805 150.241 96.7024 181.094 96.7024C211.947 96.7024 254.202 111.476 272.311 133.637H281.701C260.909 100.06 223.349 77.8984 181.094 77.8984Z" fill="#ED1C24"/>
<path fill-rule="evenodd" clip-rule="evenodd" d="M179.752 35.592C258.897 35.592 323.286 100.062 323.286 179.305C323.286 258.548 258.897 323.018 179.752 323.018C100.608 323.018 36.219 258.548 36.219 179.305C36.219 100.062 100.608 35.592 179.752 35.592ZM179.752 0C279.018 0 359.504 80.587 359.504 179.977C359.504 279.367 279.018 359.953 179.752 359.953C80.486 359.953 0 279.367 0 179.977C0.671 80.587 81.157 0 179.752 0Z" fill="#8DC63F"/>
</svg>
