<svg width="2080" height="306" viewBox="0 0 2080 306" fill="none" xmlns="http://www.w3.org/2000/svg">
<path fill-rule="evenodd" clip-rule="evenodd" d="M1140.5 142.157C1140.5 142.157 1120.28 129.654 1107.78 124.817C1107.78 124.817 1069.08 106.879 1061.4 98.3453C1061.4 98.3453 1046.32 84.1304 1055.15 67.6199C1055.15 67.6199 1058.85 56.816 1074.78 56.816C1074.78 56.816 1095.54 57.9574 1095.54 75.0126V99.0716H1169.91L1169.78 63.6382C1169.78 63.6382 1175.5 5.61146 1082.18 3.05642C1082.18 3.05642 1008.78 -1.7684 987.732 37.7634C987.732 37.7634 979.47 46.5829 979.47 77.2953V99.4866C979.47 99.4866 978.627 125.089 991.701 141.586C991.701 141.586 999.093 152.403 1017.3 164.335C1017.3 164.335 1054.28 184.244 1076.47 195.644C1076.47 195.644 1098.87 208.433 1095.93 228.782C1095.93 228.782 1094.1 249.676 1072.46 248.82C1072.46 248.82 1052.68 247.938 1052.68 227.446V203.4H973.439V238.328C973.439 238.328 971.221 305.122 1073.05 305.122C1073.05 305.122 1170.35 307.094 1174.89 236.577V208.134C1174.87 208.134 1178.32 164.919 1140.5 142.157V142.157ZM759.762 11.37L734.86 167.422H729.037L705.25 12.7708H581.026L574.801 295.369H648.352L649.234 82.4444H655.019L694.006 295.33H771.383L809.891 82.5221H815.014L816.79 295.369H890.731L882.768 11.37H759.762V11.37ZM321.929 12.5503L272.994 295.045H352.175L381.162 76.0113H387.673L416.647 295.045H495.815L446.893 12.5503H321.929V12.5503ZM1983.38 138.266V179.938H2003.69V224.671C2003.69 246.538 1985 246.94 1985 246.94C1962.28 246.94 1963.14 226.162 1963.14 226.162V71.433C1963.14 55.4931 1983.3 54.6371 1983.3 54.6371C2002.65 54.6371 2002.78 73.6509 2002.78 73.6509V97.1779H2077.33C2079.77 51.252 2070.62 40.137 2070.62 40.137C2052.12 -1.39219 1982.16 0.877506 1982.16 0.877506C1874.66 0.877506 1886.59 83.3652 1886.59 83.3652V232.971C1888.9 310.336 1994.83 302.476 1996.62 302.412C2043.74 297.198 2057.97 282.218 2057.97 282.218C2071.07 272.49 2074.44 259.015 2074.44 259.015C2078.19 251.168 2079.12 226.162 2079.12 226.162V138.266H1983.38V138.266ZM1736.27 184.244H1733.03L1657.37 11.4478H1566.86V295.395H1640.53L1636.12 122.625H1639.41L1717.79 295.395H1805.55V11.4219H1730.95L1736.27 184.244V184.244ZM1387.03 224.645C1387.03 224.645 1388.1 247.951 1366.49 247.951C1366.49 247.951 1343.77 249.171 1343.77 225.228L1343.53 11.6164H1262.73V223.529C1262.73 223.529 1254.44 303.734 1367.63 303.734C1367.63 303.734 1465.99 304.902 1465.99 227.213V11.6294H1387.03V224.645V224.645ZM167.887 142.157C167.887 142.157 147.693 129.654 135.177 124.83C135.177 124.83 96.5016 106.905 88.8235 98.3582C88.8235 98.3582 73.7396 84.1174 82.585 67.6458C82.585 67.6458 86.2684 56.842 102.195 56.842C102.195 56.842 122.96 57.9703 122.96 75.0256V99.0845H197.354L197.212 63.6382C197.212 63.6382 202.893 5.61145 109.614 3.06938C109.614 3.06938 102.584 2.6154 92.2734 3.13419C92.2734 3.13419 35.7642 6.16912 15.5573 37.1669C15.4405 37.4003 15.2719 37.569 15.1552 37.7765C15.1552 37.7765 6.90644 46.5829 6.90644 77.3083V99.4995C6.90644 99.4995 6.05042 125.102 19.1369 141.599C19.1369 141.599 26.5297 152.416 44.7392 164.348C44.7392 164.348 81.7031 184.257 103.894 195.657C103.894 195.657 126.319 208.42 123.349 228.795C123.349 228.795 121.52 249.689 99.8996 248.833C99.8996 248.833 80.1207 247.952 80.1207 227.459V203.4H0.862507V238.354C0.862507 238.354 -1.35532 305.148 100.47 305.148C100.47 305.148 197.744 307.12 202.322 236.603V208.186C202.322 208.16 205.72 164.919 167.887 142.157V142.157Z" fill="black"/>
</svg>
