<svg width="20" height="20" viewBox="0 0 20 20" fill="none" xmlns="http://www.w3.org/2000/svg"><path d="M1.667 1.667h1.45c.9 0 1.608.774 1.533 1.666l-.692 8.3a2.33 2.33 0 0 0 2.325 2.525h8.875c1.2 0 2.25-.983 2.342-2.175l.45-6.25c.1-1.383-.95-2.508-2.342-2.508H4.85" fill="#8DC63F"></path><path d="M1.667 1.667h1.45c.9 0 1.608.774 1.533 1.666l-.692 8.3a2.33 2.33 0 0 0 2.325 2.525h8.875c1.2 0 2.25-.983 2.342-2.175l.45-6.25c.1-1.383-.95-2.508-2.342-2.508H4.85M13.542 18.333a1.042 1.042 0 1 0 0-2.083 1.042 1.042 0 0 0 0 2.083zM6.875 18.333a1.042 1.042 0 1 0 0-2.083 1.042 1.042 0 0 0 0 2.083z" stroke="#8DC63F" stroke-miterlimit="10" stroke-linecap="round" stroke-linejoin="round"></path><path d="M7.5 6.667h10" stroke="#fff" stroke-miterlimit="10" stroke-linecap="round" stroke-linejoin="round"></path></svg>