<svg viewBox="0 0 256 187" fill="#fff" xmlns="http://www.w3.org/2000/svg"><path fill-rule="evenodd" clip-rule="evenodd" d="M145.64 33.55C207.47 42.35 255.01 95.5 255.01 159.77C255.01 168.89 254.04 177.79 252.22 186.37H217.61C220.1 177.94 221.44 169.01 221.44 159.77C221.44 114.09 188.84 76.04 145.64 67.59V156.26L111.25 173.54V67.24C67.12 74.94 33.56 113.44 33.56 159.77C33.56 169.01 34.9 177.93 37.39 186.37H2.79C0.97 177.79 0 168.89 0 159.77C0 94.85 48.51 41.27 111.26 33.29V17.28L145.64 0V33.55Z" fill="#fff"></path></svg>