<svg width="110" height="12" viewBox="0 0 110 12" fill="none" xmlns="http://www.w3.org/2000/svg"><path d="M96.362 11.532h4.024v-.876l-1.23-.11V5.507c.671-.328 1.342-.657 2.013-.657 1.229 0 1.341.657 1.341 1.534v5.148h2.683v-.876l-1.23-.11V5.507l.447-.219c.448-.219 1.118-.438 1.566-.438 1.229 0 1.341.657 1.341 1.643v5.039H110v-.876l-1.23-.11v-4.6c0-.767-.223-1.424-.67-1.753-.336-.329-.895-.438-1.565-.438-.895 0-1.901.329-2.907.986-.335-.548-.894-.986-1.789-.986-.894 0-1.676.219-2.906.876v-.876h-2.571v.876l1.23.11v5.696l-1.23.109v.986zm-7.378-3.943c0-1.862.782-3.067 2.347-3.067s2.348 1.205 2.348 3.067-.783 3.067-2.348 3.067c-1.677.11-2.347-1.205-2.347-3.067zm-1.677 0c0 2.738 1.453 4.052 4.024 4.052 2.572 0 4.025-1.314 4.025-4.052 0-2.739-1.453-4.053-4.025-4.053-2.57 0-4.024 1.314-4.024 4.053zm-8.272-.11c0 2.738 1.341 4.162 4.248 4.162 1.23 0 2.124-.219 2.459-.219v-.985c-.335.109-1.342.219-2.236.219-2.124 0-2.906-1.096-2.906-3.177s1.118-2.957 2.794-2.957c.56 0 1.006.11 1.23.11l.112 1.642h1.006V3.755c-.67-.11-1.342-.22-2.571-.22-2.683.11-4.136 1.425-4.136 3.944zm-7.379-.328c0-1.534.56-2.63 2.124-2.63 1.566 0 2.124 1.206 2.124 2.63h-4.248zm-1.676.328c0 2.738 1.23 4.162 4.36 4.162.894 0 1.788-.11 2.57-.219v-.876c-.558.11-1.453.22-2.235.22-1.342 0-2.907-.11-3.019-2.63h5.925v-.219c0-2.629-1.118-4.162-3.8-4.162-2.125-.11-3.801.986-3.801 3.724zm-5.03 4.053h4.024v-.876l-1.23-.11V.359H65.06v.877l1.23.11v9.09l-1.23.11v.986h-.112zM58.017 7.15c0-1.534.56-2.63 2.124-2.63 1.565 0 2.124 1.206 2.124 2.63h-4.248zm-1.788.328c0 2.738 1.23 4.162 4.36 4.162.894 0 1.788-.11 2.57-.219v-.876c-.558.11-1.453.22-2.235.22-1.342 0-2.907-.11-3.018-2.63h5.924v-.219c0-2.629-1.118-4.162-3.8-4.162-2.124-.11-3.801.986-3.801 3.724zM51.31 9.56c0 1.534.672 1.862 2.348 1.862h1.454v-.985h-1.006c-.895 0-1.23-.11-1.23-1.096v-4.6h2.236v-.986h-2.236V1.017l-1.565.438v2.3h-1.677v.986h1.677v4.82zM42.48 7.59c0-1.205.223-2.52 2.012-2.52.447 0 .894.11 1.006.11v4.929h-1.006c-1.565-.11-2.012-1.095-2.012-2.52zm-2.795 0c0 2.738 1.565 3.943 4.36 3.943h5.254v-1.315l-1.342-.11V.36h-3.912v1.315l1.341.11v1.971c-.223 0-.894-.11-1.565-.11-2.683 0-4.136 1.315-4.136 3.944zm-6.26 3.943h5.254v-1.315l-1.342-.11V.36h-3.912v1.315l1.341.11v8.324l-1.341.11v1.314zm-8.049 0h5.254v-1.315l-1.341-.11V5.947c.447-.329 1.23-.658 1.9-.658l.112 1.534h1.565V3.755c-1.342 0-2.683.11-3.913.876v-.876h-3.577v1.314l1.341.11v4.82l-1.34.109v1.424zm-7.378-3.943c0-1.424.224-2.63 1.789-2.63s1.788 1.206 1.788 2.63-.223 2.628-1.788 2.628-1.79-1.095-1.79-2.628zm-2.795 0c0 2.957 1.789 4.052 4.472 4.052 2.683 0 4.471-1.095 4.471-4.052 0-2.958-1.788-4.053-4.471-4.053-2.571 0-4.472 1.095-4.472 4.053zM2.571 11.532h3.466l1.117-4.82h.224l1.118 4.82h3.354l1.565-6.244 1.006-.11V3.756H11.85L10.508 9.56h-.223L8.942 3.755H6.037L4.695 9.451h-.223L3.13 3.755H0v1.314l1.006.11 1.565 6.353z" fill="#000"></path></svg>