<?xml version="1.0" encoding="utf-8"?>
<!-- Generator: Adobe Illustrator 24.0.3, SVG Export Plug-In . SVG Version: 6.00 Build 0)  -->
<svg version="1.1" id="Layer_1" xmlns="http://www.w3.org/2000/svg" xmlns:xlink="http://www.w3.org/1999/xlink" x="0px" y="0px"
	 viewBox="0 0 739.8 282.9" style="enable-background:new 0 0 739.8 282.9;" xml:space="preserve">
<style type="text/css">
	.st0{fill:#EB6C21;}
	.st1{fill:#FEFEFE;}
	.st2{fill:#717472;}
</style>
<path class="st0" d="M173.6,282.9h-74c-55,0-99.6-44.6-99.6-99.6V99.6C0,44.6,44.6,0,99.6,0h74c55,0,99.6,44.6,99.6,99.6v83.6
	C273.2,238.3,228.6,282.9,173.6,282.9z"/>
<path class="st1" d="M50.7,86.1c0,36.9,0,73.7,0,110.6c8.9,0,17.8,0,26.7,0c0-29,0-57.9,0-86.9c17.9,0.1,35.7-0.2,53.6,0.1
	c10.2-0.5,18.9,9.2,18.8,19.6c0.3,22.4,0,44.8,0.1,67.2c8.9,0,17.8,0,26.7,0c0-25.7,0-51.3,0-77c1.3-18.1-15.2-34.1-32.3-33.6
	C113.1,86,81.9,86.2,50.7,86.1L50.7,86.1z"/>
<path class="st1" d="M195.7,86.1c0,36.9,0,73.7,0,110.6c8.9,0,17.8,0,26.7,0c0-36.9,0-73.7,0-110.6
	C213.5,86.1,204.6,86.1,195.7,86.1z"/>
<path class="st1" d="M100.3,129.6c0,22.4,0,44.8,0,67.2c8.9,0,17.8,0,26.7,0c0-22.4,0-44.8,0-67.2
	C118.1,129.6,109.2,129.6,100.3,129.6z"/>
<g>
	<polygon class="st2" points="333.2,141 306,105.3 324.2,105.3 342.5,129.9 360.4,105.3 378.7,105.3 351.6,139.8 379.7,176.9 
		361.3,176.9 342.3,151.2 323.3,176.9 305,176.9 	"/>
	<polygon class="st2" points="395.8,177.2 410.9,177.2 410.9,105.7 395.8,105.7 	"/>
	<polygon class="st2" points="724.7,177.2 739.8,177.2 739.8,105.7 724.7,105.7 	"/>
	<path class="st2" d="M610,111.5c4.3-4.5,11-6.7,20-6.7h1.9c9.4,0,16.3,3.1,20.7,9.2c4.2-6.1,11.1-9.2,20.6-9.2h1.9
		c9.1,0,15.8,2.2,20.1,6.7c4.3,4.5,6.5,11.6,6.5,21.5v44.3h-12.9v-40.9c0-6.4-1.1-10.9-3.4-13.5c-2.3-2.6-6-3.9-11.2-3.9
		c-5.3,0-9.1,1.4-11.5,4.2c-2.4,2.8-3.5,7.4-3.5,13.9v40.2h-12.9v-40.2c0-6.6-1.2-11.3-3.5-14c-2.4-2.7-6.2-4.1-11.6-4.1
		c-5.2,0-8.9,1.3-11.2,3.9c-2.3,2.6-3.4,7.1-3.4,13.5v40.9h-12.9V133C603.5,123.2,605.7,116,610,111.5L610,111.5z"/>
	<path class="st2" d="M535.3,159.2c2.7,3.2,7.8,4.8,15.2,4.8c7.4,0,12.5-1.6,15.2-4.8s4.1-9.2,4.1-17.9s-1.4-14.6-4.1-17.9
		c-2.7-3.1-7.8-4.7-15.2-4.7c-7.4,0-12.5,1.6-15.2,4.7c-2.7,3.1-4.1,9.1-4.1,17.8S532.6,156,535.3,159.2z M516.8,142.9V140
		c0-12.2,2.6-21.1,7.8-26.8c5.2-5.6,13.4-8.5,24.7-8.5h2.5c11.3,0,19.5,2.8,24.7,8.5c5.2,5.6,7.8,14.6,7.8,26.8v2.9
		c0,12.2-2.6,21.1-7.8,26.8c-5.2,5.6-13.4,8.5-24.7,8.5h-2.5c-11.3,0-19.5-2.8-24.7-8.5C519.4,164,516.8,155,516.8,142.9z"/>
	<path class="st2" d="M482.4,146.5h-18.3c-10.7,0-15.5,2.9-15.5,10.1c0,8.9,7.7,10,16.7,10c9.8,0,17.1-1.4,17.1-10.3L482.4,146.5
		L482.4,146.5z M499.4,157.1c0,13.7-9.6,21-33.8,21c-23,0-34-6.3-34-20.9c0-16.4,12.7-21.9,32.6-21.9h18.2v-6.8
		c0-9.5-7.3-11.2-19-11.2c-9.6,0-18.5,0.8-23.5,2.2v-11.9c5.9-1.5,13.8-2.1,22.3-2.1c22.8,0,37.1,5.1,37.1,22.4V157.1L499.4,157.1z"
		/>
</g>
</svg>
